<svg width="32" height="32" viewBox="0 0 32 32" fill="none" xmlns="http://www.w3.org/2000/svg">
    <path d="M25.0243 17.8133C24.5523 17.248 23.7123 17.1706 23.1469 17.6426L17.3336 22.4866V6.66665C17.3336 5.93065 16.7363 5.33331 16.0003 5.33331C15.2643 5.33331 14.6669 5.93065 14.6669 6.66665V22.4866L8.85361 17.6426C8.28694 17.1706 7.44694 17.248 6.97627 17.8133C6.50427 18.3786 6.58027 19.22 7.14694 19.6906L15.1469 26.3573C15.2096 26.4106 15.2843 26.436 15.3536 26.476C15.4083 26.508 15.4563 26.5453 15.5163 26.5693C15.6723 26.6306 15.8349 26.6666 16.0003 26.6666C16.1656 26.6666 16.3283 26.6306 16.4843 26.5693C16.5443 26.5453 16.5923 26.508 16.6469 26.476C16.7163 26.436 16.7909 26.4106 16.8536 26.3573L24.8536 19.6906C25.4189 19.22 25.4963 18.3786 25.0243 17.8133Z" fill="#792E22" />
    <mask id="mask0_725_218" style="mask-type:luminance" maskUnits="userSpaceOnUse" x="6" y="5" width="20" height="22">
        <path d="M25.0243 17.8133C24.5523 17.248 23.7123 17.1706 23.1469 17.6426L17.3336 22.4866V6.66665C17.3336 5.93065 16.7363 5.33331 16.0003 5.33331C15.2643 5.33331 14.6669 5.93065 14.6669 6.66665V22.4866L8.85361 17.6426C8.28694 17.1706 7.44694 17.248 6.97627 17.8133C6.50427 18.3786 6.58027 19.22 7.14694 19.6906L15.1469 26.3573C15.2096 26.4106 15.2843 26.436 15.3536 26.476C15.4083 26.508 15.4563 26.5453 15.5163 26.5693C15.6723 26.6306 15.8349 26.6666 16.0003 26.6666C16.1656 26.6666 16.3283 26.6306 16.4843 26.5693C16.5443 26.5453 16.5923 26.508 16.6469 26.476C16.7163 26.436 16.7909 26.4106 16.8536 26.3573L24.8536 19.6906C25.4189 19.22 25.4963 18.3786 25.0243 17.8133Z" fill="white" />
    </mask>
    <g mask="url(#mask0_725_218)">
    </g>
</svg>