<svg width="25" height="24" viewBox="0 0 25 24" fill="none" xmlns="http://www.w3.org/2000/svg">
<path fill-rule="evenodd" clip-rule="evenodd" d="M2.3999 11.9999C2.3999 6.48588 6.8859 1.99988 12.3999 1.99988C17.9139 1.99988 22.3999 6.48588 22.3999 11.9999C22.3999 17.5139 17.9139 21.9999 12.3999 21.9999C6.8859 21.9999 2.3999 17.5139 2.3999 11.9999ZM12.3999 19.9999C7.9889 19.9999 4.3999 16.4109 4.3999 11.9999C4.3999 7.58888 7.9889 3.99988 12.3999 3.99988C16.8109 3.99988 20.3999 7.58888 20.3999 11.9999C20.3999 16.4109 16.8109 19.9999 12.3999 19.9999ZM15.1069 9.29288C14.7159 8.90188 14.0839 8.90188 13.6929 9.29288L12.3999 10.5859L11.1069 9.29288C10.7159 8.90188 10.0839 8.90188 9.6929 9.29288C9.3019 9.68388 9.3019 10.3159 9.6929 10.7069L10.9859 11.9999L9.6929 13.2929C9.3019 13.6839 9.3019 14.3159 9.6929 14.7069C9.8879 14.9019 10.1439 14.9999 10.3999 14.9999C10.6559 14.9999 10.9119 14.9019 11.1069 14.7069L12.3999 13.4139L13.6929 14.7069C13.8879 14.9019 14.1439 14.9999 14.3999 14.9999C14.6559 14.9999 14.9119 14.9019 15.1069 14.7069C15.4979 14.3159 15.4979 13.6839 15.1069 13.2929L13.8139 11.9999L15.1069 10.7069C15.4979 10.3159 15.4979 9.68388 15.1069 9.29288Z" fill="#383B46" />
<mask id="mask0_1365_272" style="mask-type:luminance" maskUnits="userSpaceOnUse" x="2" y="1" width="21" height="21">
<path fill-rule="evenodd" clip-rule="evenodd" d="M2.3999 11.9999C2.3999 6.48588 6.8859 1.99988 12.3999 1.99988C17.9139 1.99988 22.3999 6.48588 22.3999 11.9999C22.3999 17.5139 17.9139 21.9999 12.3999 21.9999C6.8859 21.9999 2.3999 17.5139 2.3999 11.9999ZM12.3999 19.9999C7.9889 19.9999 4.3999 16.4109 4.3999 11.9999C4.3999 7.58888 7.9889 3.99988 12.3999 3.99988C16.8109 3.99988 20.3999 7.58888 20.3999 11.9999C20.3999 16.4109 16.8109 19.9999 12.3999 19.9999ZM15.1069 9.29288C14.7159 8.90188 14.0839 8.90188 13.6929 9.29288L12.3999 10.5859L11.1069 9.29288C10.7159 8.90188 10.0839 8.90188 9.6929 9.29288C9.3019 9.68388 9.3019 10.3159 9.6929 10.7069L10.9859 11.9999L9.6929 13.2929C9.3019 13.6839 9.3019 14.3159 9.6929 14.7069C9.8879 14.9019 10.1439 14.9999 10.3999 14.9999C10.6559 14.9999 10.9119 14.9019 11.1069 14.7069L12.3999 13.4139L13.6929 14.7069C13.8879 14.9019 14.1439 14.9999 14.3999 14.9999C14.6559 14.9999 14.9119 14.9019 15.1069 14.7069C15.4979 14.3159 15.4979 13.6839 15.1069 13.2929L13.8139 11.9999L15.1069 10.7069C15.4979 10.3159 15.4979 9.68388 15.1069 9.29288Z" fill="white" />
</mask>
<g mask="url(#mask0_1365_272)">
</g>
</svg>