<svg width="24" height="24" viewBox="0 0 24 24" fill="none" xmlns="http://www.w3.org/2000/svg">
<g id="icon/general/24x24/outline/copy">
<path id="&#240;&#159;&#142;&#168; Icon &#208;&#161;olor" fill-rule="evenodd" clip-rule="evenodd" d="M9 13V12C9 10.346 10.346 9 12 9H13V5.667C13 5.299 12.701 5 12.333 5H5.667C5.299 5 5 5.299 5 5.667V12.333C5 12.701 5.299 13 5.667 13H9ZM9 15H5.667C4.196 15 3 13.804 3 12.333V5.667C3 4.196 4.196 3 5.667 3H12.333C13.804 3 15 4.196 15 5.667V9H18C19.654 9 21 10.346 21 12V18C21 19.654 19.654 21 18 21H12C10.346 21 9 19.654 9 18V15ZM12 11C11.449 11 11 11.449 11 12V18C11 18.551 11.449 19 12 19H18C18.552 19 19 18.551 19 18V12C19 11.449 18.552 11 18 11H12Z" fill="#383B46"/>
<mask id="mask0_1370_123" style="mask-type:luminance" maskUnits="userSpaceOnUse" x="3" y="3" width="18" height="18">
<path id="&#240;&#159;&#142;&#168; Icon &#208;&#161;olor_2" fill-rule="evenodd" clip-rule="evenodd" d="M9 13V12C9 10.346 10.346 9 12 9H13V5.667C13 5.299 12.701 5 12.333 5H5.667C5.299 5 5 5.299 5 5.667V12.333C5 12.701 5.299 13 5.667 13H9ZM9 15H5.667C4.196 15 3 13.804 3 12.333V5.667C3 4.196 4.196 3 5.667 3H12.333C13.804 3 15 4.196 15 5.667V9H18C19.654 9 21 10.346 21 12V18C21 19.654 19.654 21 18 21H12C10.346 21 9 19.654 9 18V15ZM12 11C11.449 11 11 11.449 11 12V18C11 18.551 11.449 19 12 19H18C18.552 19 19 18.551 19 18V12C19 11.449 18.552 11 18 11H12Z" fill="white"/>
</mask>
<g mask="url(#mask0_1370_123)">
</g>
</g>
</svg>
