<svg height="40" viewBox="0 0 99 40" width="99" xmlns="http://www.w3.org/2000/svg"><rect fill="#b14043" height="40" rx="6" width="99"/><path d="m20.117-18.5q-.807 1.742-3.019 6.257t-3.338 7.043v6.918a.769.769 0 0 1 -.167.339.475.475 0 0 1 -.346.1q-1.2 0-3.582.028t-3.647.028a1.655 1.655 0 0 1 -.461-1.162 5.236 5.236 0 0 0 .064-.688q.013-.387 0-.982t-.013-.761v-1a13.444 13.444 0 0 0 -1.282-5.941l-.4-.9q-.211-.47-.4-.913t-.4-.9q-.205-.456-.4-.913l-.391-.9q-.192-.443-.4-.913t-.417-.9l-2.204-3.964q0-.18.269-.332a1.086 1.086 0 0 1 .538-.152h3.23q.667 0 2.006.014t1.993.014q.179.028.4.4a6.706 6.706 0 0 1 .45 1.01q.237.636.468 1.348t.461 1.57q.231.857.4 1.507t.346 1.328q.173.678.224.885l2.346-8.1h7.229a.379.379 0 0 1 .269.159 1.5 1.5 0 0 1 .174.473zm.6 13.331q.051-6.8.051-10.15v-.166q0-.1-.026-.685t-.026-1q0-1.659.256-1.881.064 0 .192.014t.192.014q2.153-.111 5-.111h1.744a1.106 1.106 0 0 1 .276.09.746.746 0 0 0 .237.076q.013.678.058 2.337t.064 2.876q.019 1.217.006 2.392v5.393q0 .512.026.83a5.5 5.5 0 0 0 .122.747 1.148 1.148 0 0 0 .346.643.94.94 0 0 0 .634.214 1.012 1.012 0 0 0 .872-.491 1.982 1.982 0 0 0 .333-1.141v-5.062q-.013-.927.019-2.918t.006-3.111v-1q0-.152-.026-.463t-.023-.478v-.664a.41.41 0 0 1 .333-.387q2.461 0 7.383.055v.221h.564q-.1 2.946-.1 6.859v3.1q0 .622-.026 1.908t-.027 1.908a8.917 8.917 0 0 1 -.526 3.181 6.107 6.107 0 0 1 -1.384 2.23 6.935 6.935 0 0 1 -2.076 1.383 10.213 10.213 0 0 1 -2.461.747 16.3 16.3 0 0 1 -2.679.207 17.056 17.056 0 0 1 -2.6-.187 10.168 10.168 0 0 1 -2.451-.719 7.421 7.421 0 0 1 -2.14-1.362 6.332 6.332 0 0 1 -1.487-2.226 9.058 9.058 0 0 1 -.653-3.222zm46.53 1.715q0 .249.026.767t.038.989q.013.47.019 1.044a9.71 9.71 0 0 1 -.038 1.038 7.363 7.363 0 0 1 -.135.871 1.455 1.455 0 0 1 -.276.629.573.573 0 0 1 -.455.221h-5.844q-.615-.512-.615-3.817 0-1.2.013-2.9t.013-2.413v-.965q0-.124-.019-.477a4.842 4.842 0 0 1 -.006-.546q-.513 2.005-1.256 5.739t-1.027 4.992q-.128.387-1.179.387h-4.537q-.833 0-.974-.47l-1.23-5.78q-.165-.885-.365-1.839t-.468-2.171l-.4-1.8q-.152 4.427-.152 6.755v2.429q0 1.632.026 2.462-.077.3-.282.3h-1.2q-.756 0-2.217.014t-2.217.014q-.692 0-.692-.249v-20.518a.388.388 0 0 1 .058-.214.364.364 0 0 1 .179-.138 1.744 1.744 0 0 1 .237-.076 1.557 1.557 0 0 1 .295-.035q.179-.007.295-.014t.295 0q.179.007.231.007h1.512q3.653 0 5.146.111t2.281.107q.308 1.853.974 5.5l.974 5.5 2.051-11.174.1.028a.654.654 0 0 0 .154.028q1.371 0 4.05-.041t4.05-.041h1.9q.359.041.359.774.282 13.41.308 14.972zm2.253 4.674v-.525q0-2.365.051-6.983t.051-6.983v-5.729h14.92v4.964q0 .055-.013.2a.532.532 0 0 1 -.045.2l-.09.159a.352.352 0 0 1 -.135.145.976.976 0 0 1 -.205.076 1.081 1.081 0 0 1 -.282.035h-.352q-3.32 0-6.05-.111-.026.221-.083.685t-.09.816q-.032.353-.032.685h6.1a.83.83 0 0 1 .513.111.452.452 0 0 1 .128.36q0 .069-.013.221t-.013.221q0 .664.038 1.964t.037 1.969q-.038.277-.205.277a.168.168 0 0 1 -.128-.055q-4.05.221-6 .221h-.332v1.991q1.141 0 3.3-.111t3.236-.111q.846 0 .974.387v1.051q0 .664.026 1.964t.026 1.964q0 .691-.513.691-.667 0-2.051-.014t-2.1-.014q-1.846 0-5.281.1t-4.973.118l-.359-.443q-.055-.385-.055-.496z" fill="#fff" transform="translate(7.686 28.246)"/></svg>